<?xml version="1.0" encoding="utf-8"?>
<!-- Generator: Adobe Illustrator 26.0.0, SVG Export Plug-In . SVG Version: 6.00 Build 0)  -->
<svg version="1.1" id="Layer_1" xmlns="http://www.w3.org/2000/svg" xmlns:xlink="http://www.w3.org/1999/xlink" x="0px" y="0px"
	 viewBox="0 0 830.95 200" style="enable-background:new 0 0 830.95 200;" xml:space="preserve">
<style type="text/css">
	.st0{fill:#007BFF;}
	.st1{fill:#F8F9FA;stroke:#007BFF;stroke-width:8.5039;stroke-miterlimit:10;}
	.st2{fill:#F8F9FA;stroke:#007BFF;stroke-width:5.5088;stroke-miterlimit:10;}
</style>
<g>
	<g>
		<g>
			<g>
				<path class="st0" d="M263.74,43.8c0,4.5-0.9,7.75-2.7,9.82c-1.44,1.71-3.15,2.88-5.23,3.69c0.9,1.35,1.62,2.79,2.25,4.42
					c0.72,1.89,1.08,3.96,1.08,6.04v98.75c0,4.23-1.53,8.11-3.96,11.26c-3.33,4.23-8.38,6.85-14.15,6.85s-10.9-2.61-14.24-6.85
					c-2.43-3.15-3.96-7.03-3.96-11.26V67.77c0-4.23,1.53-8.2,3.96-11.35c3.33-4.23,8.47-6.76,14.24-6.76c1.17,0,2.34,0.09,3.51,0.36
					c1.53,0,2.7-0.09,3.51-0.18c3.51,0,6.04-1.53,6.04-6.13v-0.63c0-0.27,0-0.36,0.09-0.45c0.18-0.81,0.72-1.17,1.62-1.17h6.31
					c0.81,0,1.35,0.36,1.53,1.17c0.09,0.09,0.09,0.18,0.09,0.45V43.8z M247.43,67.77c0-3.51-2.88-6.4-6.4-6.4
					c-3.6,0-6.49,2.88-6.49,6.4v98.75c0,3.51,2.88,6.4,6.49,6.4c3.51,0,6.4-2.88,6.4-6.4V67.77z M246.62,44.07
					c2.16-2.88,3.78-5.32,4.51-7.12c1.62-4.5-0.27-8.47-4.87-10.18c-1.8-0.63-5.68-1.26-8.74-0.9c-0.45,0-1.17,0.09-1.35,0.63
					c-0.36,0.72-1.26,4.32-1.44,5.23c-0.09,0.63-0.27,1.08,0.54,1.08c3.06,0,9.28-0.27,7.48,3.51c-0.63,1.35-3.24,5.05-4.5,6.94
					c-0.27,0.72-0.09,0.99,0.54,1.35c0.9,0.09,5.32,0.18,6.22,0.18c0.63,0,0.72,0,1.26-0.36C246.53,44.34,246.44,44.25,246.62,44.07
					z"/>
			</g>
			<g>
				<path class="st0" d="M324.2,67.77v98.75c0,7.93-4.87,14.33-11.71,16.94c-1.71,0.63-3.51,1.08-5.41,1.17h-17.57
					c-1.08-0.09-1.62-0.72-1.62-1.8v-61.72h-3.15c-1.35,0-2.43-1.08-2.43-2.43V113c0-1.35,1.08-2.43,2.43-2.43h3.15V51.46
					c0-1.08,0.54-1.71,1.62-1.8h17.57c1.89,0.09,3.69,0.54,5.41,1.17C319.33,53.44,324.2,59.84,324.2,67.77z M312.48,67.77
					c0-3.51-2.88-6.4-6.49-6.4h-6.4v49.2h7.03c1.35,0,2.43,1.17,2.43,2.52v5.59c0,1.35-1.08,2.43-2.43,2.43h-7.03v51.81h6.4
					c3.6,0,6.49-2.88,6.49-6.4V67.77z"/>
				<path class="st0" d="M372.76,67.86v115.15c-0.09,1.08-0.72,1.62-1.8,1.62h-8.2c-0.99,0-1.71-0.81-1.71-1.8v-42.08h-12.88v42.08
					c0,0.99-0.81,1.8-1.8,1.8h-8.2c-0.99,0-1.71-0.81-1.71-1.8V67.86c0-10.09,8.11-18.2,18.11-18.2S372.76,57.77,372.76,67.86z
					 M354.47,27.49l15.23,7.84c0.09,0,0.18,0,0.18,0.09c0.45,0.09,0.72,0.54,0.72,1.26v7.66c0,0.72-0.45,1.35-0.9,1.35l-15.23-7.75
					l-15.32,7.75c-0.36,0-0.81-0.63-0.81-1.35l-0.09-7.66c0-0.72,0.18-1.17,0.63-1.26c0.09-0.09,0.18-0.09,0.27-0.09L354.47,27.49z
					 M361.05,67.86c0-3.6-2.88-6.49-6.49-6.49c-3.51,0-6.4,2.88-6.4,6.49v61.18h12.88V67.86z"/>
				<path class="st0" d="M418.62,49.48c0.99,0,1.62,0.54,1.71,1.62v77.13c0,7.93-5.05,14.69-12.25,17.12v37.48
					c0,0.99-0.81,1.8-1.8,1.8h-8.2c-0.99,0-1.71-0.81-1.71-1.8v-37.48c-7.21-2.43-12.34-9.19-12.34-17.12V51.28
					c0-0.99,0.81-1.8,1.8-1.8h8.2c0.99,0,1.71,0.81,1.71,1.8v76.95c0,3.51,2.88,6.4,6.49,6.4c3.51,0,6.4-2.88,6.4-6.4V51.28
					c0-0.99,0.81-1.8,1.8-1.8H418.62z"/>
			</g>
			<g>
				<path class="st0" d="M477.82,90.48c0,4.87-1.62,9.01-4.87,12.34c3.24,3.33,4.87,7.48,4.87,12.25v51.45
					c0,7.93-4.87,14.33-11.71,16.94c-1.53,0.63-3.33,0.99-5.41,1.17h-1.08h-8.11h-8.38c-1.08-0.09-1.62-0.72-1.62-1.8V51.46
					c0-1.08,0.54-1.71,1.62-1.8h16.94h0.63c1.89,0.09,3.69,0.54,5.41,1.17c6.85,2.61,11.71,9.01,11.71,16.94V90.48z M453.22,96.96
					h6.4c3.6,0,6.49-2.88,6.49-6.49V67.77c0-3.51-2.88-6.4-6.49-6.4h-6.4V96.96z M466.1,115.07c0-3.51-2.88-6.4-6.49-6.4h-6.4v64.24
					h6.4c3.6,0,6.49-2.88,6.49-6.4V115.07z"/>
				<path class="st0" d="M508.27,49.66c10,0,18.2,8.11,18.2,18.2v115.15c-0.09,1.08-0.72,1.62-1.8,1.62h-8.2
					c-0.99,0-1.71-0.81-1.71-1.8v-42.08h-12.88v42.08c0,0.99-0.81,1.8-1.8,1.8h-8.2c-0.99,0-1.71-0.81-1.71-1.8V67.86
					C490.16,57.77,498.27,49.66,508.27,49.66z M521.15,36.32c0.18,0,0.27,0,0.36-0.09c0.63-0.18,0.9-0.81,0.9-1.8v-6.67
					c0-0.99-0.54-1.89-1.17-1.89l-18.2,8.65c-0.63,0-1.17,0.9-1.17,1.89l-0.09,6.49c0,0.99,0.27,1.53,0.9,1.8
					c0.09,0.09,0.18,0.09,0.36,0.09L521.15,36.32z M514.76,67.86c0-3.6-2.88-6.49-6.49-6.49c-3.51,0-6.4,2.88-6.4,6.49v61.18h12.88
					V67.86z"/>
				<path class="st0" d="M574.13,182.92c0,0.99-0.72,1.62-1.53,1.71h-0.09h-0.09h-8.2c-0.99,0-1.8-0.72-1.8-1.71V67.77
					c0-3.51-2.88-6.49-6.4-6.49c-3.6,0-6.49,2.97-6.49,6.49v115.06c0,0.99-0.72,1.8-1.71,1.8h-8.2c-0.99,0-1.8-0.81-1.8-1.8V51.46
					c0-0.99,0.81-1.71,1.8-1.71h8.2c0.81,0,1.35,0.36,1.62,1.08c1.8-0.81,3.96-1.17,6.58-1.17c4.69,0,9.01,1.8,12.25,4.78
					c3.6,3.33,5.86,7.93,5.86,13.34V182.92z"/>
			</g>
			<g>
				<path class="st0" d="M624.32,59.48c0,0.99-0.81,1.8-1.8,1.8h-10.54v121.64c0,1.17-0.54,1.71-1.71,1.71h-8.2
					c-1.17,0-1.71-0.54-1.71-1.71V61.28h-10.54c-0.99,0-1.8-0.81-1.8-1.8v-8.2c0-0.99,0.81-1.71,1.8-1.71h32.71
					c0.99,0,1.8,0.72,1.8,1.71V59.48z"/>
				<path class="st0" d="M668.29,183.1c-0.09,0.81-0.81,1.53-1.8,1.53h-8.2c-1.17,0-1.71-0.54-1.71-1.71v-42.26h-12.88v42.26
					c0,0.99-0.81,1.71-1.8,1.71h-8.2c-1.17,0-1.71-0.54-1.71-1.71V51.37c0-1.17,0.54-1.71,1.71-1.71h8.2c0.99,0,1.8,0.72,1.8,1.71
					v77.58h12.88V51.37c0-1.17,0.54-1.71,1.71-1.71h8.2c1.08,0,1.71,0.54,1.8,1.53V183.1z"/>
				<path class="st0" d="M714.51,166.52c0,10-8.11,18.11-18.11,18.11s-18.2-8.11-18.2-18.11V51.37c0-0.99,0.81-1.71,1.8-1.71h8.2
					c1.17,0,1.71,0.54,1.71,1.71v115.15c0,3.51,2.88,6.4,6.49,6.4c3.51,0,6.4-2.88,6.4-6.4V51.37c0-0.99,0.81-1.71,1.8-1.71h8.2
					c0.99,0,1.62,0.72,1.71,1.53V166.52z"/>
				<path class="st0" d="M757.12,56.42c2.43,3.15,3.96,7.12,3.96,11.35v98.75c0,4.23-1.53,8.11-3.96,11.26
					c-3.33,4.23-8.38,6.85-14.15,6.85s-10.9-2.61-14.24-6.85c-2.43-3.15-3.96-7.03-3.96-11.26V67.77c0-4.23,1.53-8.2,3.96-11.35
					c3.33-4.23,8.47-6.76,14.24-6.76S753.79,52.18,757.12,56.42z M742.53,27.49l15.23,7.84c0.09,0,0.18,0,0.18,0.09
					c0.45,0.09,0.72,0.54,0.72,1.26v7.66c0,0.72-0.45,1.35-0.9,1.35l-15.23-7.75l-15.32,7.75c-0.36,0-0.81-0.63-0.81-1.35
					l-0.09-7.66c0-0.72,0.18-1.17,0.63-1.26c0.09-0.09,0.18-0.09,0.27-0.09L742.53,27.49z M750.55,18.12c0.18,0,0.27,0,0.36-0.09
					c0.63-0.18,0.9-0.81,0.9-1.8V9.56c0-0.99-0.54-1.89-1.17-1.89l-18.2,8.65c-0.63,0-1.17,0.9-1.17,1.89l-0.09,6.49
					c0,0.99,0.27,1.53,0.9,1.8c0.09,0.09,0.18,0.09,0.36,0.09L750.55,18.12z M749.37,67.77c0-3.51-2.88-6.4-6.4-6.4
					c-3.6,0-6.49,2.88-6.49,6.4v98.75c0,3.51,2.88,6.4,6.49,6.4c3.51,0,6.4-2.88,6.4-6.4V67.77z"/>
				<path class="st0" d="M796.23,68.04c0-3.51-2.88-6.4-6.4-6.4c-3.6,0-6.49,2.88-6.49,6.4v98.3c0,3.6,2.88,6.49,6.49,6.49
					c3.51,0,6.4-2.88,6.4-6.49v-19.73c0-1.17,0.54-1.71,1.71-1.71h8.2c0.99,0,1.71,0.72,1.8,1.53v19.91c0,10-8.29,18.2-18.11,18.2
					c-10.09,0-18.2-8.2-18.2-18.2v-98.3c0-10,8.11-18.2,18.2-18.2c9.82,0,18.11,8.2,18.11,18.2v12.52c-0.09,0.81-0.81,1.53-1.8,1.53
					h-8.2c-1.17,0-1.71-0.54-1.71-1.71V68.04z"/>
			</g>
		</g>
	</g>
	<g>
		<circle class="st1" cx="103.88" cy="111.46" r="80.87"/>
		<g>
			<g>
				<path class="st1" d="M103.81,55.26c-24.66,0.03-44.06,20.97-43.14,45.62c1.13,30.07,23.46,53.43,35.56,63.94
					c4.39,3.81,10.9,3.8,15.29-0.01c12.42-10.79,35.59-35.1,35.59-66.31C147.11,74.6,127.72,55.22,103.81,55.26z"/>
				<g>
					<path class="st2" d="M115.04,91.62v28.22c0,6.17-5,11.17-11.17,11.17c-6.17,0-11.17-5-11.17-11.17V91.62
						c0-6.18,5-11.17,11.17-11.17c3.09,0,5.88,1.25,7.9,3.27C113.79,85.74,115.04,88.54,115.04,91.62z"/>
					<path class="st0" d="M115.04,91.62v14.11H92.7V91.62c0-6.18,5-11.17,11.17-11.17c3.09,0,5.88,1.25,7.9,3.27
						C113.79,85.74,115.04,88.54,115.04,91.62z"/>
				</g>
			</g>
		</g>
	</g>
</g>
</svg>
